<?xml version="1.0" encoding="UTF-8" standalone="no"?>
<svg
   width="111.30674"
   height="92.865829"
   viewBox="0 0 111.30674 92.865829"
   fill="none"
   version="1.1"
   id="svg7"
   xml:space="preserve"
   xmlns="http://www.w3.org/2000/svg"
   xmlns:svg="http://www.w3.org/2000/svg">
                    <style>
                        path, rect, circle, ellipse, line, polyline, polygon { 
                            fill: currentColor;
                        }
                        @media (prefers-color-scheme: dark) {
                            path, rect, circle, ellipse, line, polyline, polygon { 
                                fill: #fff;
                            }
                        }
                    </style><defs
     id="defs7" /><path
     style="fill:#cccccc;fill-opacity:1"
     d="m 102.16937,92.505827 c -0.1939,-0.19799 -0.58668,-1.07447 -0.87285,-1.94773 -0.28617,-0.87327 -0.68749,-1.71704 -0.89182,-1.87505 -0.20434,-0.15802 -1.148545,-0.49347 -2.098225,-0.74546 -2.00237,-0.53131 -2.53248,-0.88124 -2.53248,-1.6717 0,-0.8286 0.4858,-1.14801 2.63834,-1.73466 1.05691,-0.28805 2.023215,-0.63657 2.147335,-0.77449 0.12412,-0.13791 0.49617,-1.0493 0.82677,-2.02529 0.53189,-1.57023 0.68245,-1.80465 1.30772,-2.03607 1.13664,-0.42068 1.81776,0.18261 2.45697,2.17621 0.28491,0.8886 0.64919,1.73283 0.8095,1.87607 0.16032,0.14325 1.17013,0.51775 2.24403,0.83223 1.54644,0.45286 2.02499,0.68944 2.30084,1.13749 0.3112,0.50545 0.31089,0.62546 -0.003,1.12672 -0.27723,0.44283 -0.7437,0.67036 -2.21414,1.07998 -1.0246,0.28543 -2.03126,0.64541 -2.23702,0.79996 -0.20576,0.15455 -0.59117,0.94139 -0.85647,1.74854 -0.65964,2.00686 -0.96772,2.39325 -1.90823,2.39325 -0.44059,0 -0.91424,-0.15261 -1.11734,-0.36 z m -66.239901,-0.78391 c -5.22855,-0.66154 -9.94621,-1.75722 -14.68683,-3.41103 -2.67129,-0.9319 -3.28502,-1.43298 -3.28502,-2.68203 0,-0.57615 0.15772,-0.94538 0.55574,-1.30101 0.9574,-0.85546 1.54055,-0.84726 4.11613,0.0579 10.06877,3.53843 18.82975,4.36277 28.25044,2.65816 5.79319,-1.04823 9.65597,-2.34737 13.770376,-4.63126 3.9618,-2.19918 6.52742,-4.23329 9.64809,-7.64933 2.80692,-3.072588 5.0119,-6.905988 6.09374,-10.594108 0.65627,-2.23729 0.72554,-2.76721 0.73947,-5.65705 0.009,-1.89568 -0.10575,-3.68897 -0.28334,-4.42278 -1.44506,-5.970885 -4.84404,-10.270474 -9.86527,-12.479195 -1.49949,-0.659595 -1.66519,-0.686297 -4.25868,-0.686297 -1.62324,0 -2.797436,0.08842 -2.946826,0.221897 -0.46104,0.411946 0.590746,1.259136 2.132266,1.717497 3.69033,1.097297 7.05782,4.120128 8.55689,7.681128 0.71827,1.7062 1.27768,4.47017 1.27768,6.31276 0,4.42753 -2.04955,9.53174 -5.41412,13.48336 -1.56437,1.83733 -4.83909,4.679948 -6.864066,5.958358 -3.64324,2.30005 -9.49813,4.44632 -14.08268,5.16237 -2.87888,0.44966 -8.94486,0.6149 -11.51129,0.31358 -5.14962,-0.60459 -11.95052,-2.33241 -13.05098,-3.31569 -1.17784,-1.05242 -0.67631,-2.87095 0.9079,-3.29202 0.76148,-0.2024 1.08529,-0.15535 2.77679,0.40343 4.27952,1.41373 9.52729,2.28063 13.76805,2.2744 8.97257,-0.0132 16.45348,-2.61865 22.078656,-7.689638 2.25596,-2.0337 3.24002,-3.24972 4.67866,-5.78154 3.16705,-5.57356 2.63911,-12.16708 -1.25264,-15.644428 -0.68933,-0.615924 -1.34858,-1.119862 -1.465,-1.119862 -0.11642,0 -0.3003,0.393422 -0.40863,0.874271 -0.1581,0.701793 -0.0913,1.147716 0.33879,2.260339 1.84303,4.76828 -0.0307,10.78323 -4.616776,14.82094 -3.42388,3.01445 -8.58641,5.40308 -13.93869,6.44924 -2.44255,0.47742 -8.22895,0.47178 -10.73704,-0.0105 -11.67924,-2.24567 -21.80197,-9.52819 -27.2084198,-19.57436 -0.7072,-1.3141 -1.33674,-2.792904 -1.39897,-3.286225 -0.10003,-0.792983 -0.0318,-0.969619 0.58853,-1.523903 0.52307,-0.467372 0.91334,-0.626955 1.5332698,-0.626955 1.2976,0 1.84069,0.469058 2.76217,2.385632 5.52127,11.483711 18.77315,19.673241 30.6302,18.929171 5.50886,-0.3457 11.34922,-2.71803 14.90089,-6.05265 1.6203,-1.5213 2.41909,-2.76968 3.08839,-4.82667 0.45957,-1.41245 0.73406,-3.44132 0.46557,-3.44132 -0.0431,0 -0.6906,0.2726 -1.43891,0.60577 -2.48022,1.10428 -5.61267,1.19653 -8.04084,0.23681 -0.81156,-0.32077 -1.0366,-0.33276 -1.80195,-0.096 -1.31893,0.408 -4.67586,0.75588 -5.89716,0.61112 -1.64547,-0.19504 -5.50527,-1.32267 -6.83459,-1.99671 -1.87325,-0.94985 -4.91431,-3.46788 -6.3311,-5.242221 -1.50847,-1.88916 -3.50314,-5.670602 -4.10177,-7.776023 -2.60062,-9.146577 0.52256,-19.328611 8.37844,-27.314989 C 41.905169,7.2600659 50.513489,2.9042089 59.916479,1.0363569 64.169445,0.19152791 66.368085,-0.00541209 71.485145,1.1090307e-4 78.707555,0.00791091 84.480325,0.96886691 90.754755,3.2078149 c 3.43056,1.22415 4.09833,1.702081 4.09833,2.933206 0,1.057287 -0.45777,1.665676 -1.48016,1.967166 -0.71293,0.210233 -0.99994,0.151814 -3.01032,-0.612734 -14.58519,-5.546744 -31.615336,-4.366215 -43.980826,3.0487481 -9.57828,5.743606 -15.32931,15.181423 -14.75161,24.208344 0.20707,3.235637 0.63244,4.853646 1.97782,7.52317 1.70975,3.39253 3.81788,5.667994 6.85574,7.399932 1.4697,0.837902 5.25276,1.727372 6.58665,1.548642 1.18735,-0.15909 1.20385,-0.18591 0.73338,-1.19202 -0.26208,-0.560451 -0.57012,-0.792586 -1.43892,-1.084346 -2.85006,-0.957111 -5.18672,-2.882114 -6.92188,-5.702426 -3.7002,-6.014269 -2.93706,-13.629534 2.04674,-20.424179 1.49129,-2.033146 5.68232,-5.802666 8.06889,-7.257367 9.39771,-5.7282481 22.914916,-7.2034041 34.427296,-3.757108 3.01711,0.903189 3.65667,1.174937 4.18938,1.78005 0.79812,0.906608 0.51728,2.476567 -0.52217,2.918991 -1.03679,0.441295 -1.35109,0.405291 -4.14353,-0.474655 -4.69388,-1.479126 -7.26322,-1.85152 -12.69509,-1.839998 -3.84933,0.0082 -4.98605,0.08371 -6.930736,0.460626 -6.46222,1.252486 -11.26551,3.460925 -15.31492,7.041441 -3.06966,2.71421 -5.14471,5.779575 -6.24227,9.221369 -0.63552,1.992917 -0.69736,5.861171 -0.1232,7.706795 0.51907,1.668528 2.17038,4.157468 3.40139,5.126745 1.60911,1.266991 1.784,1.310706 2.13846,0.534527 0.2808,-0.61488 0.24735,-0.762971 -0.45327,-2.007222 -2.18895,-3.887395 -1.85615,-8.744026 0.85276,-12.444688 3.19351,-4.362666 7.49345,-7.415108 12.60823,-8.950324 3.793836,-1.138731 9.978446,-1.55923 13.889676,-0.944374 9.00748,1.415997 16.50208,5.340693 22.58486,11.827013 2.39432,2.553172 4.718125,5.701983 6.160935,8.348235 1.51306,2.775082 1.51529,3.817481 0.01,4.513161 -1.68157,0.77698 -2.5853,0.20024 -4.121555,-2.63028 -0.62656,-1.154417 -1.77679,-2.950656 -2.55607,-3.991642 -1.86542,-2.491857 -5.45256,-6.203024 -7.34992,-7.604029 -1.69445,-1.251184 -5.05876,-3.1527 -7.50319,-4.240832 -1.61554,-0.719149 -5.48428,-1.771796 -8.04264,-2.188323 -2.9712,-0.483742 -8.22901,-0.141854 -11.296346,0.734544 -0.63312,0.180895 -2.08354,0.750824 -3.22316,1.266508 -1.66686,0.754262 -2.48275,1.302323 -4.17239,2.802727 -3.63312,3.226231 -4.89481,5.572147 -4.62511,8.599725 0.0732,0.821606 0.25072,1.786856 0.39451,2.145 l 0.26144,0.651172 1.53829,-0.651172 c 1.36151,-0.576342 1.79641,-0.656171 3.78442,-0.694678 1.93654,-0.03751 2.38334,-0.115352 3.24156,-0.564746 2.25748,-1.182095 3.46246,-1.427278 7.059616,-1.43645 3.20903,-0.0082 3.40639,0.01611 5.0974,0.627377 5.78245,2.090243 10.19045,6.489182 12.43149,12.405933 2.63004,6.94376 1.91188,14.26693 -2.10977,21.5137 -3.33778,6.014468 -9.03026,11.359828 -16.00151,15.025748 -4.352366,2.28875 -8.415266,3.60149 -14.614656,4.72206 -3.88508,0.70225 -4.64931,0.77559 -8.74645,0.8393 -3.11207,0.0484 -5.22668,-0.0235 -6.89255,-0.23424 z m -26.2599798,-8.0874 c -2.10219,-0.96612 -2.74612,-1.8068 -2.30295,-3.00662 0.56857,-1.53934 2.18518,-1.76308 4.4742998,-0.61925 1.89239,0.94559 2.30759,1.37803 2.30759,2.40341 0,0.67351 -0.13892,0.93837 -0.74664,1.42354 -0.99123,0.79136 -1.65008,0.75586 -3.7322998,-0.20108 z M 0.96233918,78.758607 C 0.11622918,78.111487 -8.180027e-7,77.918247 -8.180027e-7,77.158687 c 0,-1.07467 0.4552199980027,-1.67694 1.5004800180027,-1.98517 0.69976,-0.20636 0.94796,-0.178 1.84737,0.21103 1.78958,0.77407 2.27587,2.4082 1.04415,3.50877 -0.98825,0.88301 -2.15911,0.83702 -3.42966002,-0.13471 z M 17.668309,75.825767 c -1.38902,-0.73081 -1.76625,-1.18269 -1.7754,-2.126688 -0.011,-1.13759 0.90795,-2.02147 2.10174,-2.02147 1.01312,0 2.74137,0.78818 3.30509,1.50731 0.58668,0.748408 0.43652,1.936518 -0.33147,2.622738 -0.86946,0.77687 -1.84763,0.78224 -3.29996,0.0181 z m 76.059146,-3.646278 c -1.38461,-1.041 -1.10606,-3.02616 0.52193,-3.71983 2.21407,-0.94339 4.36401,1.07662 3.32159,3.12085 -0.59929,1.17525 -2.65165,1.49509 -3.84352,0.59898 z m 9.747355,-20.01726 c -0.46202,-0.25175 -0.79691,-0.66449 -0.97846,-1.20594 -0.42523,-1.26817 -0.33844,-1.837957 0.39109,-2.567504 0.87252,-0.872537 2.25151,-0.942154 3.12034,-0.157529 0.81422,0.735313 1.21462,2.223403 0.82461,3.064713 -0.54226,1.16973 -2.07492,1.56516 -3.35758,0.86626 z M 6.8511792,44.212298 c -0.92715,-0.828426 -1.18053,-2.910692 -0.45645,-3.751127 0.81534,-0.946355 2.91807,-0.934955 3.6180598,0.01961 0.47925,0.653541 0.76293,2.172471 0.54286,2.906669 -0.40585,1.353998 -2.5723598,1.836399 -3.7044698,0.824844 z M 11.978249,24.738271 c -0.73785,-0.244962 -0.81526,-0.366968 -1.50718,-2.375404 -0.33976,-0.986227 -0.7488298,-1.770522 -0.9801398,-1.87917 -0.21836,-0.102562 -1.17402,-0.381372 -2.1237,-0.619578 -1.82583,-0.457967 -2.30447,-0.803446 -2.29874,-1.659206 0.006,-0.851241 0.27399,-1.032321 2.55149,-1.722148 l 2.16462,-0.655637 0.7337698,-1.934125 c 0.77204,-2.034987 0.9747,-2.274703 1.92738,-2.279797 0.94889,-0.0051 1.33089,0.415866 1.86395,2.053959 0.27613,0.848557 0.69806,1.739826 0.93762,1.980597 0.25343,0.254712 1.19907,0.632018 2.26146,0.902308 2.03115,0.51676 2.36739,0.756188 2.36739,1.68575 0,0.846177 -0.58216,1.237302 -2.52659,1.697489 -0.86851,0.205549 -1.76257,0.515825 -1.98681,0.689502 -0.22424,0.173678 -0.66776,1.077573 -0.9856,2.008655 -0.70624,2.068826 -1.20196,2.50419 -2.39892,2.106805 z m 95.494881,-7.793539 c -0.33988,-0.226706 -0.73663,-0.733459 -0.88166,-1.126116 -0.37585,-1.017583 0.25662,-2.138572 1.42775,-2.530525 0.75974,-0.254268 0.94136,-0.243866 1.7267,0.09889 1.21015,0.528158 1.82345,1.643485 1.4539,2.644 -0.14638,0.396316 -0.48848,0.859716 -0.76021,1.029778 -0.70255,0.439686 -2.22249,0.380239 -2.96648,-0.116023 z M 100.077,12.207319 c -1.835135,-0.983807 -2.436285,-1.810812 -2.093215,-2.8796511 0.26791,-0.834699 1.25883,-1.503357 2.223525,-1.500407 0.83185,0.0025 3.71079,1.512264 4.08949,2.144536 0.12418,0.2073211 0.22578,0.7450831 0.22578,1.1950281 0,0.660975 -0.13603,0.920355 -0.70834,1.350644 -1.01009,0.759432 -1.87617,0.687557 -3.73724,-0.31015 z M 22.188779,5.1456069 c -0.98278,-0.385557 -1.46845,-1.076979 -1.46845,-2.090579 0,-2.007628 2.66195,-2.99871199 4.24796,-1.581582 0.7672,0.685509 0.95913,1.68126 0.49316,2.558646 -0.60716,1.143267 -1.99402,1.61514 -3.27267,1.113515 z"
     id="path31" /></svg>
